<svg width="121" height="203" viewBox="0 0 121 203" fill="none" xmlns="http://www.w3.org/2000/svg">
<path d="M110.165 137.044C110.165 137.044 121.443 167.731 120.267 172.795C120.267 172.795 102.812 164.859 102.312 163.461C101.822 162.063 96.0003 154.433 94.4434 152.677C92.8865 150.921 91.482 143.326 92.4804 141.945C93.4704 140.564 98.7418 135.509 99.6894 135.484C100.637 135.458 110.156 137.044 110.156 137.044H110.165Z" fill="#FFE3DE"/>
<path d="M4.81245 139.39C4.22861 139.978 2.82404 153.54 3.13711 160.053C3.45017 166.565 15.4822 168.517 16.2606 167.733C17.039 166.949 27.3195 161.084 27.7088 159.132C28.098 157.18 28.2926 147.011 26.9303 145.647C25.568 144.283 21.3035 142.714 19.5605 141.93C17.8175 141.146 4.81245 139.39 4.81245 139.39Z" fill="#FFE3DE"/>
<path d="M18.7401 118.437C31.3475 133.687 79.6615 131.334 86.456 126.057C93.2504 120.781 63.5379 94.1135 61.0164 87.277C58.4949 80.4319 96.8972 104.96 87.8267 95.8215C82.953 90.92 100.993 15.0276 62.0874 14.0473C35.5358 13.3824 26.4907 28.7262 26.1015 43.3796C25.7122 58.0415 33.2174 90.7836 29.7229 100.169" fill="#1E293B"/>
<path d="M50.6052 72.736C50.6052 72.736 49.8353 80.2886 47.4999 84.8577C45.1646 89.4182 36.6356 91.1145 36.6356 91.1145C36.6356 91.1145 42.9977 108.036 58.5157 108.821C74.0337 109.605 77.766 92.2909 77.766 92.2909C77.766 92.2909 73.8823 91.8988 70.3962 88.3782C66.9102 84.8577 67.6802 77.0408 67.2909 73.1281C66.9017 69.2155 50.6052 72.736 50.6052 72.736Z" fill="#FFE3DE"/>
<path d="M59.7349 86.1791C62.7133 85.8807 65.6155 84.9601 68.027 83.2638C67.6716 81.4907 67.5447 79.5898 67.477 77.8167L61.021 71.3126C56.2827 71.5087 50.6051 72.7362 50.6051 72.7362C50.6051 72.7362 49.8352 80.2887 47.4998 84.8578C47.1529 85.5312 46.6791 86.1365 46.1122 86.682C50.7236 87.4407 56.3758 86.5201 59.7349 86.1791Z" fill="#FFD4CC"/>
<path d="M37.524 47.829C37.524 47.829 32.5403 45.9877 32.9041 54.9127C33.1495 61.0076 39.1147 60.3854 39.1147 60.3854C39.1147 60.3854 41.8308 83.4523 64.3379 83.0602C84.9327 82.7021 83.3505 47.0959 83.3505 47.0959C83.3505 47.0959 72.1392 47.7267 66.4109 36.628C66.4109 36.628 57.2812 52.5174 37.5325 47.829H37.524Z" fill="#FFE3DE"/>
<path d="M53.5409 56.6431C54.5363 56.6431 55.3432 55.8302 55.3432 54.8274C55.3432 53.8247 54.5363 53.0117 53.5409 53.0117C52.5455 53.0117 51.7386 53.8247 51.7386 54.8274C51.7386 55.8302 52.5455 56.6431 53.5409 56.6431Z" fill="#1E293B"/>
<path d="M53.499 49.7392C55.1152 49.7392 56.4859 50.0715 57.0189 50.5402C57.1543 50.4124 57.2389 50.276 57.2389 50.1312C57.2389 49.4494 55.5551 48.8955 53.4737 48.8955C51.3922 48.8955 49.7084 49.4494 49.7084 50.1312C49.7084 50.2846 49.793 50.4294 49.9537 50.5658C50.4699 50.0886 51.8575 49.7392 53.499 49.7392Z" fill="#1E293B"/>
<path d="M36.1874 54.1042C36.1874 52.8937 36.7544 51.8964 37.4736 51.7515C37.4143 51.7429 37.3551 51.7344 37.2959 51.7344C36.4836 51.7344 35.8236 52.7914 35.8236 54.1042C35.8236 55.4169 36.4836 56.474 37.2959 56.474C37.3551 56.474 37.4143 56.474 37.4736 56.4569C36.7459 56.312 36.1874 55.3146 36.1874 54.1042Z" fill="#1E293B"/>
<path d="M57.8705 108.66C58.2071 109.03 58.2071 109.03 58.2072 109.029L58.2077 109.029L58.2096 109.027L58.2173 109.02L58.248 108.992L58.3689 108.883C58.4751 108.786 58.6317 108.645 58.8331 108.463C59.2359 108.1 59.8177 107.577 60.5333 106.939C61.9645 105.663 63.9302 103.928 66.0686 102.09C70.2681 98.4809 75.0892 94.5142 77.8507 92.8222C84.3598 94.5716 90.8691 96.7675 97.2394 102.245C98.8024 103.589 100.583 106.435 102.384 110.039C104.174 113.619 105.95 117.872 107.524 121.957C109.097 126.041 110.465 129.949 111.44 132.837C111.928 134.28 112.317 135.468 112.584 136.295C112.713 136.696 112.814 137.012 112.883 137.231C109.132 139.718 104.955 141.395 101.674 142.457C99.9906 143.002 98.5485 143.383 97.5284 143.627C97.0184 143.75 96.6143 143.838 96.3385 143.895C96.2006 143.924 96.0948 143.945 96.024 143.958C96.0102 143.961 95.9977 143.964 95.9866 143.966C95.9692 143.969 95.9551 143.972 95.9444 143.974L95.925 143.977L95.9204 143.978L95.9195 143.978L95.9194 143.978L95.9193 143.978L95.5859 144.039L95.5185 144.371C92.055 161.443 92.0544 175.873 92.9209 186.039C93.3542 191.122 94.0043 195.14 94.5469 197.89C94.8183 199.265 95.0628 200.324 95.2399 201.04C95.2824 201.211 95.321 201.363 95.3551 201.495H95.3549H95.3351H95.3151H95.2947H95.2741H95.2532H95.2321H95.2106H95.1889H95.1669H95.1446H95.1221H95.0993H95.0762H95.0528H95.0292H95.0053H94.9811H94.9567H94.932H94.907H94.8818H94.8563H94.8305H94.8045H94.7782H94.7516H94.7248H94.6977H94.6703H94.6427H94.6149H94.5867H94.5583H94.5297H94.5008H94.4716H94.4422H94.4125H94.3826H94.3524H94.322H94.2913H94.2604H94.2292H94.1977H94.166H94.1341H94.1019H94.0695H94.0368H94.0039H93.9707H93.9373H93.9036H93.8697H93.8355H93.8012H93.7665H93.7316H93.6965H93.6612H93.6256H93.5897H93.5537H93.5173H93.4808H93.444H93.407H93.3698H93.3323H93.2945H93.2566H93.2184H93.18H93.1413H93.1025H93.0634H93.024H92.9845H92.9447H92.9047H92.8644H92.824H92.7833H92.7424H92.7012H92.6599H92.6183H92.5765H92.5345H92.4922H92.4498H92.4071H92.3642H92.3211H92.2778H92.2342H92.1905H92.1465H92.1023H92.0579H92.0133H91.9685H91.9234H91.8782H91.8327H91.7871H91.7412H91.6951H91.6488H91.6024H91.5557H91.5088H91.4616H91.4143H91.3668H91.3191H91.2712H91.2231H91.1748H91.1263H91.0775H91.0286H90.9795H90.9302H90.8807H90.831H90.7811H90.731H90.6807H90.6303H90.5796H90.5287H90.4777H90.4265H90.375H90.3234H90.2716H90.2196H90.1674H90.1151H90.0625H90.0098H89.9569H89.9038H89.8505H89.797H89.7434H89.6896H89.6356H89.5814H89.527H89.4725H89.4177H89.3629H89.3078H89.2525H89.1971H89.1415H89.0857H89.0298H88.9737H88.9174H88.861H88.8043H88.7475H88.6906H88.6334H88.5761H88.5187H88.4611H88.4033H88.3453H88.2872H88.2289H88.1704H88.1118H88.0531H87.9941H87.935H87.8758H87.8164H87.7568H87.6971H87.6372H87.5772H87.517H87.4566H87.3961H87.3355H87.2747H87.2137H87.1526H87.0914H87.03H86.9684H86.9067H86.8449H86.7829H86.7207H86.6584H86.596H86.5334H86.4707H86.4078H86.3448H86.2817H86.2184H86.155H86.0914H86.0277H85.9638H85.8999H85.8357H85.7715H85.7071H85.6426H85.5779H85.5131H85.4482H85.3831H85.3179H85.2526H85.1871H85.1216H85.0559H84.99H84.9241H84.858H84.7917H84.7254H84.6589H84.5923H84.5256H84.4588H84.3918H84.3247H84.2575H84.1902H84.1228H84.0552H83.9875H83.9197H83.8518H83.7838H83.7157H83.6474H83.579H83.5105H83.4419H83.3732H83.3044H83.2355H83.1664H83.0973H83.028H82.9587H82.8892H82.8196H82.7499H82.6801H82.6102H82.5402H82.4701H82.3999H82.3296H82.2592H82.1887H82.1181H82.0474H81.9766H81.9057H81.8347H81.7636H81.6924H81.6211H81.5497H81.4782H81.4067H81.335H81.2632H81.1914H81.1195H81.0474H80.9753H80.9031H80.8308H80.7585H80.686H80.6134H80.5408H80.4681H80.3953H80.3224H80.2494H80.1764H80.1033H80.0301H79.9568H79.8834H79.8099H79.7364H79.6628H79.5891H79.5154H79.4416H79.3677H79.2937H79.2196H79.1455H79.0713H78.9971H78.9227H78.8483H78.7738H78.6993H78.6247H78.55H78.4753H78.4005H78.3256H78.2507H78.1757H78.1006H78.0255H77.9503H77.8751H77.7998H77.7244H77.649H77.5735H77.4979H77.4224H77.3467H77.271H77.1952H77.1194H77.0435H76.9676H76.8917H76.8156H76.7396H76.6634H76.5872H76.511H76.4348H76.3584H76.2821H76.2057H76.1292H76.0527H75.9762H75.8996H75.8229H75.7463H75.6696H75.5928H75.516H75.4392H75.3623H75.2854H75.2084H75.1315H75.0544H74.9774H74.9003H74.8232H74.746H74.6688H74.5916H74.5144H74.4371H74.3598H74.2824H74.2051H74.1277H74.0502H73.9728H73.8953H73.8178H73.7403H73.6627H73.5852H73.5076H73.4299H73.3523H73.2747H73.197H73.1193H73.0416H72.9638H72.8861H72.8083H72.7305H72.6527H72.5749H72.4971H72.4193H72.3414H72.2635H72.1857H72.1078H72.0299H71.952H71.8741H71.7962H71.7183H71.6403H71.5624H71.4845H71.4065H71.3286H71.2506H71.1727H71.0947H71.0167H70.9388H70.8608H70.7829H70.7049H70.627H70.549H70.4711H70.3932H70.3152H70.2373H70.1594H70.0815H70.0036H69.9257H69.8478H69.7699H69.692H69.6142H69.5363H69.4585H69.3807H69.3029H69.2251H69.1473H69.0696H68.9918H68.9141H68.8364H68.7587H68.681H68.6034H68.594L68.5847 201.496C55.4967 201.985 44.7004 201.985 37.1772 201.863C33.4157 201.802 30.4726 201.71 28.4705 201.633C27.4695 201.595 26.7038 201.561 26.1887 201.536C26.1121 201.532 26.0411 201.529 25.9756 201.526C26.011 201.327 26.0542 201.079 26.1032 200.79C26.2408 199.978 26.4242 198.838 26.6076 197.524C26.9732 194.904 27.3418 191.572 27.3429 188.763C27.8301 179.248 27.026 169.276 26.1021 161.691C25.6398 157.895 25.1469 154.692 24.7695 152.438C24.5808 151.311 24.4209 150.421 24.3081 149.812C24.2517 149.507 24.2071 149.273 24.1765 149.115C24.1612 149.036 24.1494 148.975 24.1414 148.935L24.1323 148.889L24.13 148.877L24.1294 148.874L24.1292 148.873C24.1292 148.873 24.1292 148.873 23.6389 148.971L24.1292 148.873L24.0514 148.485L23.6563 148.471C18.1258 148.279 12.3746 146.257 7.98268 144.264C5.79168 143.27 3.9495 142.288 2.65576 141.555C2.00906 141.188 1.49985 140.884 1.15312 140.672C1.04571 140.607 0.953911 140.55 0.878457 140.503C1.24582 136.79 3.21506 130.004 5.50672 123.434C7.86007 116.687 10.5124 110.284 12.0336 107.795C15.061 102.842 23.0297 94.5956 36.5177 91.6532C36.6232 91.7357 36.7891 91.8655 37.0506 92.0695C37.7661 92.6279 39.198 93.7435 42.0633 95.9729C46.8615 100.232 50.7337 103.5 53.4079 105.705C54.7461 106.808 55.7844 107.645 56.4885 108.207C56.8406 108.487 57.1092 108.699 57.29 108.841C57.3804 108.912 57.4488 108.965 57.4948 109.001L57.5468 109.042L57.5601 109.052L57.5635 109.055L57.5644 109.055L57.5646 109.055C57.5647 109.055 57.5647 109.056 57.8705 108.66ZM57.8705 108.66L58.2071 109.03L57.8968 109.312L57.5647 109.056L57.8705 108.66ZM36.7024 91.4306C36.7771 91.5568 36.9109 91.5145 37.029 91.4183C36.6425 91.1163 36.644 91.1163 36.644 91.1163L36.7024 91.4306ZM36.7024 91.4306L36.6446 91.1589L36.7024 91.4306Z" fill="white" stroke="#00397A"/>
<path d="M73.0106 56.3365C74.006 56.3365 74.8129 55.5236 74.8129 54.5208C74.8129 53.518 74.006 52.7051 73.0106 52.7051C72.0153 52.7051 71.2084 53.518 71.2084 54.5208C71.2084 55.5236 72.0153 56.3365 73.0106 56.3365Z" fill="#1E293B"/>
<path d="M72.7569 49.7392C74.373 49.7392 75.7437 50.0715 76.2768 50.5402C76.4121 50.4124 76.4968 50.276 76.4968 50.1312C76.4968 49.4494 74.813 48.8955 72.7315 48.8955C70.65 48.8955 68.9662 49.4494 68.9662 50.1312C68.9662 50.2846 69.0508 50.4294 69.2116 50.5658C69.7277 50.0886 71.1154 49.7392 72.7569 49.7392Z" fill="#1E293B"/>
<path d="M63.9236 64.2375C62.7306 64.2375 61.6983 63.8966 61.1737 63.4024C61.3852 64.1438 62.4852 64.7147 63.8136 64.7147C64.9898 64.7147 65.9882 64.2716 66.352 63.6495C65.7851 64.0074 64.9051 64.2375 63.9236 64.2375Z" fill="#1E293B"/>
<path d="M59.1898 72.7042L67.3519 72.7042" stroke="black" stroke-width="0.5" stroke-linecap="round"/>
<path d="M89.4174 167.248L102.211 132.477C102.625 131.361 101.72 130.201 100.434 130.201L48.7946 130.082C47.9062 130.082 47.1278 130.653 46.9501 131.455L38.8018 167.555C38.5565 168.646 39.4787 169.661 40.6972 169.627L87.6913 168.416C88.4782 168.399 89.1636 167.93 89.4174 167.24V167.248Z" fill="#254754"/>
<path d="M98.1068 144.359C98.386 145.74 98.5214 147.062 98.5553 149.466C98.5553 149.466 98.4114 153.404 102.811 156.873" stroke="#E7F0FF" stroke-linecap="round" stroke-linejoin="round"/>
<path d="M57.709 109.225L36.4139 91.3018L48.0294 121.318L57.709 109.225Z" stroke="#00397A"/>
<path d="M58.1316 109.215L78.1361 92.1085L66.5206 122.125L58.1316 109.215Z" stroke="#00397A"/>
<path d="M58.1317 113.029L58.1317 129.085L58.1317 197.014" stroke="#00397A"/>
<path d="M44.04 25.956C44.04 25.956 58.6301 24.2331 66.7627 23.9481C74.1107 23.6923 78.7218 24.2992 79.4709 24.6311C80.22 24.9629 81.9457 22.4381 82.3567 22.0329C82.7678 21.6276 86.3597 17.2474 87.1813 15.755C88.3058 13.7126 88.0855 9.60996 83.6733 6.73102C79.261 3.85207 71.6243 -0.210049 57.8082 2.22121C43.9921 4.65247 23.0598 21.2529 21.3043 27.7094C20.3127 31.3492 20.5692 34.2246 28.8438 31.6487C37.1183 29.0728 40.4862 27.2022 44.0435 25.9525L44.04 25.956Z" fill="white" stroke="#00397A" stroke-miterlimit="10"/>
<path d="M65.8322 16.9371C65.8322 16.9371 52.4378 19.1257 44.2383 25.0313" stroke="white" stroke-miterlimit="10"/>
<path d="M34.5564 30.194C34.5564 30.194 66.3301 28.3524 78.1808 29.3099C80.2659 30.0404 81.1929 25.0842 80.0423 24.4028C75.1966 21.5346 46.855 24.4184 43.9932 25.1874C41.1314 25.9564 34.5564 30.194 34.5564 30.194Z" fill="white" stroke="#00397A" stroke-miterlimit="10"/>
<ellipse cx="1.93592" cy="1.93654" rx="1.93592" ry="1.93654" transform="matrix(0.997827 -0.065892 0.0658498 0.997829 75.0907 14.3852)" fill="#00397A"/>
<path d="M49.6322 150.656C49.6322 150.656 21.5407 158.661 3.13731 160.05C3.13731 160.05 -0.26414 169.393 9.21253 174.448C18.6892 179.503 40.8155 173.297 48.9045 164.781C56.9935 156.265 54.7513 152.932 54.159 152.625C53.5667 152.319 49.6322 150.656 49.6322 150.656Z" fill="#FFE3DE"/>
<path d="M23.7493 156.14C23.5462 156.089 23.4193 155.953 23.1824 155.944C22.8947 155.936 22.607 155.987 22.3278 156.038C21.7694 156.149 21.2194 156.285 20.6609 156.422C19.4933 156.703 18.3256 157.018 17.1749 157.368C14.8988 158.05 12.7158 158.851 10.7612 160.215C10.6258 160.309 10.7104 160.513 10.8712 160.479C12.0219 160.266 13.1558 160.028 14.2726 159.67C15.3895 159.312 16.498 158.945 17.6149 158.604C18.7064 158.272 19.7979 157.965 20.9063 157.692C21.4901 157.547 22.0824 157.419 22.6663 157.274C22.9116 157.215 23.157 157.155 23.3855 157.044C23.597 156.942 23.6985 156.746 23.817 156.652C23.9947 156.516 24.0032 156.209 23.7493 156.14Z" fill="white"/>
<path d="M89.4174 167.248L102.211 132.477C102.625 131.361 101.72 130.201 100.434 130.201L48.7946 130.082C47.9062 130.082 47.1278 130.653 46.9501 131.455L38.8018 167.555C38.5565 168.646 39.4787 169.661 40.6972 169.627L87.6913 168.416C88.4782 168.399 89.1636 167.93 89.4174 167.24V167.248Z" fill="#1E293B"/>
<path d="M40.2657 168.825L48.4139 132.725C48.5916 131.923 49.37 131.344 50.2585 131.352L101.898 131.472C102.025 131.472 102.135 131.489 102.253 131.514C102.05 130.781 101.348 130.201 100.443 130.201L48.8031 130.082C47.9147 130.082 47.1363 130.653 46.9586 131.455L38.8103 167.555C38.5903 168.518 39.2842 169.414 40.2826 169.593C40.2149 169.354 40.2064 169.09 40.2657 168.825Z" fill="#64748B"/>
<path d="M52.162 133.049C51.8405 133.049 51.5359 133.194 51.3159 133.415C51.2397 133.492 51.1636 133.577 51.0959 133.671C50.8928 133.978 50.8505 134.353 50.9097 134.71C50.9351 134.864 50.9943 135.017 51.079 135.137C51.172 135.264 51.2482 135.341 51.3751 135.435C51.4597 135.494 51.5528 135.529 51.6459 135.563C51.9928 135.69 52.3905 135.622 52.712 135.46C53.0251 135.298 53.2535 135.009 53.3635 134.668C53.6004 133.901 52.9404 133.057 52.162 133.04V133.049Z" fill="white"/>
<path d="M104.284 156.396C104.284 156.396 113.981 162.261 118.381 167.077C122.78 171.902 119.024 183.367 112.17 182.327C105.316 181.287 98.285 166.975 96.9481 164.886C94.2066 160.624 95.865 163.13 93.0474 159.03C83.8923 145.74 101.568 153.395 104.284 156.396Z" fill="#FFE3DE"/>
<path d="M97.3029 163.632L90.8046 157.188L79.0687 148.911C79.0687 148.911 74.6858 146.294 74.1696 144.76C73.6535 143.234 74.6858 141.034 75.0242 140.813C75.3373 140.608 76.2088 140.975 76.3442 142.04C76.3865 142.39 76.1073 143.523 76.4119 143.992C77.038 144.956 78.2395 145.459 78.8064 145.51C79.6441 145.578 79.4326 144.768 79.4326 144.768C79.4326 144.768 75.1765 138.937 75.4981 135.979C75.5742 135.28 76.1158 134.667 76.818 134.675C77.3173 134.675 77.8672 134.982 78.1126 136.218C78.5949 138.682 81.861 141.733 81.861 141.733C81.861 141.733 78.1803 133.414 78.3157 131.666C78.3665 130.984 79.9487 129.612 80.8287 131.248C81.8694 133.192 83.3925 137.224 83.3925 137.224C83.3925 137.224 85.4401 140.787 85.8886 139.884C86.337 138.98 84.0694 133.183 83.9763 132.706C83.8832 132.229 83.0033 130.302 84.6363 129.757C85.5586 129.45 86.8108 130.907 87.6231 133.132C88.317 135.016 90.5338 140.838 91.8622 141.111C93.1907 141.384 93.7576 140.583 93.8083 139.952C93.8591 139.321 92.8099 135.11 92.5476 134.471C92.2345 133.703 93.233 132.126 94.426 133.806C95.7291 135.63 96.0252 137.505 96.736 139.261C97.4467 141.017 98.4875 143.2 98.5551 148.902C98.5551 148.902 98.4113 152.841 102.811 156.31L97.3113 163.632H97.3029Z" fill="#FFE3DE"/>
<path d="M113.414 162.9C112.018 161.57 110.258 160.837 108.608 159.891C106.899 158.911 105.274 157.794 103.658 156.66C102.947 156.157 101.991 155.637 101.483 154.913C101.001 154.222 100.163 153.02 100.206 153.856C100.248 154.794 100.485 155.518 101.162 156.192C101.805 156.831 102.541 157.402 103.243 157.965C104.749 159.175 106.408 160.224 108.075 161.187C109.716 162.133 111.366 163.088 113.287 163.199C113.439 163.207 113.515 163.003 113.414 162.9Z" fill="white"/>
<path d="M12.8558 105.699C14.0558 102.899 21.1058 97.7826 25.3558 95.4493L29.1058 99.9493L17.1058 109.949C15.1891 109.699 11.6558 108.499 12.8558 105.699Z" fill="#00397A"/>
<path d="M91.1745 97.2954C94.0907 98.1762 98.6982 102.699 101.856 107.949L98.6982 112.804L87.4242 101.992C87.4592 100.06 88.2583 96.4147 91.1745 97.2954Z" fill="#00397A"/>
<path d="M26.9691 142.082C27.2191 139.082 28.2691 132.482 30.4691 130.082" stroke="#00397A"/>
<path d="M16.1058 102.699L19.3558 106.311" stroke="white" stroke-width="2"/>
<path d="M20.6957 99.088L23.9457 102.699" stroke="white" stroke-width="2"/>
<path d="M94.8268 100.473L91.5154 104.028" stroke="white" stroke-width="2"/>
<path d="M98.8279 104.728L95.5165 108.283" stroke="white" stroke-width="2"/>
</svg>
